<?xml version="1.0" encoding="UTF-8"?>
<svg version="1.1" xmlns="http://www.w3.org/2000/svg" width="400" height="400">
<path d="M0 0 C1.54658969 -0.00551503 1.54658969 -0.00551503 3.12442362 -0.01114148 C6.57861048 -0.0221524 10.03276723 -0.02601781 13.48696899 -0.02983093 C15.96432592 -0.03609766 18.4416819 -0.04274464 20.91903687 -0.04974365 C28.35308884 -0.06895037 35.78713283 -0.07956985 43.22120231 -0.08847144 C46.72873359 -0.09286205 50.23626338 -0.09822692 53.74379349 -0.10346031 C65.41571679 -0.12046992 77.08763919 -0.13496112 88.75957298 -0.14220905 C91.78556698 -0.14411871 94.81156097 -0.14603908 97.83755493 -0.147995 C98.58958111 -0.14847874 99.34160728 -0.14896248 100.11642213 -0.14946087 C112.28174819 -0.15775011 124.44697557 -0.18306946 136.6122586 -0.21557567 C149.12402506 -0.24873293 161.63574153 -0.2666657 174.14755213 -0.26985329 C181.16351801 -0.27201061 188.17934008 -0.28064417 195.19526291 -0.30631447 C201.80269098 -0.33043533 208.40990815 -0.33379307 215.01738739 -0.32355309 C217.43274165 -0.32305971 219.84810897 -0.32932111 222.26342392 -0.34310913 C238.28184205 -0.42938022 253.53497151 0.05217908 267.99331665 7.83467102 C268.64824097 8.17570862 269.30316528 8.51674622 269.97793579 8.86811829 C290.36266289 19.81432181 305.21773153 37.31799033 312.74331665 59.14717102 C315.6816944 69.46619838 316.89397014 79.49637549 316.88375854 90.18206787 C316.88821523 91.65665855 316.88821523 91.65665855 316.89276195 93.16103894 C316.90140327 96.44084887 316.90295333 99.72062211 316.90444946 103.0004425 C316.90908096 105.35824663 316.91410607 107.71605002 316.91949463 110.07385254 C316.93395576 117.13777377 316.9399996 124.20168717 316.94489014 131.26562056 C316.9474743 134.60117444 316.95126386 137.93672701 316.95500946 141.27227974 C316.96719751 152.37553855 316.97749685 163.47879546 316.98088455 174.58206081 C316.98110412 175.29166521 316.98132368 176.00126961 316.9815499 176.73237718 C316.98176818 177.44358698 316.98198646 178.15479678 316.98221135 178.8875584 C316.9826548 180.32850675 316.98310136 181.7694551 316.98355103 183.21040344 C316.98377246 183.92514893 316.98399388 184.63989441 316.98422202 185.37629885 C316.9881641 196.93941721 317.00560213 208.50247233 317.02891055 220.06556629 C317.05270335 231.96606473 317.06509004 243.86653156 317.06625247 255.76705414 C317.06716494 262.4370219 317.07313277 269.10691838 317.09107208 275.77686882 C317.10763847 282.05847238 317.10966686 288.33992044 317.10093307 294.62153816 C317.10016721 296.91552779 317.10444531 299.20952607 317.11439133 301.50349426 C317.23370256 330.75881475 311.69424189 355.96095817 290.6925354 377.39326477 C277.86394658 389.78172037 258.3050331 400.23914256 240.17193031 400.2813921 C239.27947629 400.28584994 238.38702226 400.29030779 237.46752417 400.29490072 C236.49623741 400.29471635 235.52495065 400.29453199 234.52423096 400.29434204 C233.48515292 400.29801873 232.44607487 400.30169542 231.37550962 400.30548352 C227.88824368 400.31651016 224.40100756 400.32036253 220.91372681 400.32417297 C218.41519069 400.33043853 215.9166555 400.33708541 213.41812134 400.34408569 C205.91543245 400.36330551 198.41275148 400.37391416 190.91004521 400.38281348 C187.37150076 400.38720208 183.8329578 400.39256751 180.29441452 400.39780235 C168.52130507 400.41481411 156.74819653 400.42930541 144.97507668 400.43655109 C141.9217491 400.43846081 138.86842154 400.44038116 135.81509399 400.44233704 C134.67684117 400.44306265 134.67684117 400.44306265 133.51559334 400.44380292 C121.23959762 400.45209246 108.96369968 400.47741136 96.6877466 400.50991771 C84.06640543 400.54306431 71.44511381 400.56100682 58.82372892 400.56419533 C51.7446234 400.56635373 44.66566035 400.57500323 37.58659744 400.60065651 C30.92005999 400.62475979 24.25382204 400.62814174 17.5872345 400.61789513 C15.14888533 400.61740134 12.71052328 400.6236749 10.27221298 400.63745117 C-2.52766178 400.70568529 -14.11430405 400.50789021 -26.25668335 396.14717102 C-27.34771551 395.75896337 -28.43874767 395.37075571 -29.56284142 394.97078419 C-49.65711503 387.48348236 -66.24602347 371.37390649 -75.28622437 352.07173157 C-81.04132525 339.08058558 -83.41441971 326.2121107 -83.39039612 312.05412292 C-83.39266167 311.06486222 -83.39492723 310.07560152 -83.39726144 309.05636322 C-83.40356973 305.75572855 -83.40277411 302.45513526 -83.40194702 299.15449524 C-83.40494053 296.78197171 -83.40834351 294.40944867 -83.41212463 292.03692627 C-83.42095037 285.60071223 -83.42330218 279.16451149 -83.42394042 272.72829199 C-83.42443542 268.70321514 -83.42672417 264.67814061 -83.42943764 260.65306473 C-83.43823918 247.32422809 -83.44285793 233.99539948 -83.44210716 220.66655992 C-83.44206721 219.94892135 -83.44202725 219.23128278 -83.44198608 218.49189758 C-83.4419452 217.77337455 -83.44190432 217.05485152 -83.4418622 216.31455506 C-83.44145614 204.68152676 -83.45101701 193.04853088 -83.46512445 181.41551195 C-83.47952162 169.44835746 -83.48639276 157.48121874 -83.48553067 145.51405537 C-83.4851998 138.80451448 -83.4880955 132.09501265 -83.49870872 125.38547897 C-83.50842554 119.07025711 -83.50844435 112.75510674 -83.50119209 106.43988228 C-83.50015062 104.13012271 -83.50248297 101.8203586 -83.50855255 99.51060677 C-83.57899206 70.8333975 -79.2109004 46.10542418 -58.80892944 24.68769836 C-42.87531514 8.87437558 -22.47222898 -0.00431607 0 0 Z " fill="#216092" transform="translate(83.25668334960938,-0.1471710205078125)"/>
<path d="M0 0 C24.77172857 0 48.37525709 5.86693934 70 18 C71.5778125 18.84691406 71.5778125 18.84691406 73.1875 19.7109375 C89.45142158 28.7323315 103.73293394 41.25493018 115 56 C115.66644531 56.85078125 116.33289063 57.7015625 117.01953125 58.578125 C141.03717051 90.22266746 149.87385165 129.66284907 144.69140625 168.75390625 C143.74498155 175.02908283 141.96384049 180.97663057 140 187 C139.53013672 188.67835938 139.53013672 188.67835938 139.05078125 190.390625 C132.30717009 213.15344631 119.17756193 232.01829025 103 249 C102.28328125 249.78117188 101.5665625 250.56234375 100.828125 251.3671875 C75.68567532 277.9274445 38.38395081 291.25305614 2.44873047 292.28540039 C-37.97144627 292.78358378 -74.12461087 276.79435638 -103.44140625 249.5625 C-107.67216063 245.32528645 -111.36590242 240.75124609 -115 236 C-115.98226562 234.75863281 -115.98226562 234.75863281 -116.984375 233.4921875 C-127.5282984 219.70073569 -134.68100715 204.44219421 -140 188 C-140.41121094 186.77152344 -140.82242188 185.54304687 -141.24609375 184.27734375 C-151.69335567 149.72101587 -146.13465075 110.28491171 -129.765625 78.5859375 C-123.80101967 67.4622321 -116.6803777 57.54112565 -108.078125 48.2890625 C-105.94245877 45.93661812 -103.96058922 43.49930969 -102 41 C-98.91946349 41.58579462 -97.15209996 42.4367239 -94.8203125 44.51953125 C-94.22831055 45.0412793 -93.63630859 45.56302734 -93.02636719 46.10058594 C-92.39891602 46.66551758 -91.77146484 47.23044922 -91.125 47.8125 C-89.77899712 49.00169981 -88.43263462 50.19049269 -87.0859375 51.37890625 C-86.40499023 51.9836377 -85.72404297 52.58836914 -85.02246094 53.21142578 C-81.95785147 55.92162966 -78.85735557 58.58902161 -75.75 61.25 C-75.16871338 61.74870605 -74.58742676 62.24741211 -73.98852539 62.76123047 C-70.55100393 65.70156765 -67.07619624 68.58813628 -63.5625 71.4375 C-57.21723119 76.59186792 -51.07490552 81.97362765 -44.90966797 87.34033203 C-37.76608759 93.54872623 -30.60354128 99.72823972 -23.25 105.6875 C-18.87636127 109.23628582 -14.69733154 112.95330327 -10.53515625 116.74609375 C-7.89270582 119.09539098 -5.18376426 121.33569602 -2.4375 123.5625 C1.10047297 126.43710304 4.61528237 129.3293309 8.0625 132.3125 C8.77535156 132.92738281 9.48820313 133.54226562 10.22265625 134.17578125 C13.24624088 137.27910877 14.29851052 140.0061423 14.375 144.3125 C14.2434931 149.30976223 12.9865839 151.99169003 10 156 C5.83721949 159.51523688 2.45709007 160.90591224 -3 161 C-10.32065133 159.51105397 -14.70305107 154.90280296 -19.9296875 149.8984375 C-23.48536701 146.49880662 -27.27986463 143.43253961 -31.109375 140.34765625 C-34.50695698 137.58826873 -37.85023321 134.76928575 -41.1875 131.9375 C-42.05362915 131.20273437 -42.05362915 131.20273437 -42.93725586 130.453125 C-44.29212523 129.30281474 -45.6461579 128.15151911 -47 127 C-52.75935689 135.63903533 -52.18092298 147.73976623 -50.3125 157.64453125 C-46.30560043 171.71876599 -38.38624695 182.89868986 -25.8515625 190.4609375 C-13.05583004 197.36712735 0.81442623 199.42697712 14.9375 195.375 C28.89563003 190.41481664 38.97069576 182.00599694 46 169 C51.58462531 157.06920957 53.36711395 143.31738691 49.375 130.5625 C43.31143829 115.00999611 33.42096337 104.42767248 18.125 97.6875 C11.80663292 95.45114306 11.80663292 95.45114306 0 94 C0 80.8 0 67.6 0 54 C26.71922692 55.90851621 47.93996907 63.96739358 67 83 C67.74121094 83.72960937 68.48242188 84.45921875 69.24609375 85.2109375 C85.76307855 102.53284359 92.52781863 126.56834574 92.14453125 149.95703125 C91.53945984 170.87872811 82.93873538 191.46052646 69 207 C68.18789063 207.90621094 67.37578125 208.81242188 66.5390625 209.74609375 C50.23445567 226.98307546 27.75090603 237.03797774 4.0703125 238.19140625 C-22.22144911 238.78095027 -45.42675533 229.76536451 -64.65405273 211.79907227 C-79.4919546 197.41474103 -91.53230286 175.01296458 -92 154 C-92.05800781 152.18048828 -92.05800781 152.18048828 -92.1171875 150.32421875 C-92.52253098 131.85561792 -88.07672184 115.52056739 -80 99 C-83.96 95.7 -87.92 92.4 -92 89 C-94.76210935 92.68281246 -96.62565762 96.1988878 -98.4375 100.375 C-98.74316895 101.07818359 -99.04883789 101.78136719 -99.36376953 102.50585938 C-110.44697895 128.65448065 -110.61472918 159.9110819 -100.25 186.3125 C-88.70372686 214.22874056 -68.69042234 235.84452187 -40.9375 248.0546875 C-19.50893081 256.87771259 3.5531278 258.53977295 26 253 C27.0828125 252.73316406 28.165625 252.46632813 29.28125 252.19140625 C43.65555166 248.18866136 56.60042982 241.6013746 68 232 C69.28970703 230.93652344 69.28970703 230.93652344 70.60546875 229.8515625 C85.61589953 216.95888242 95.90910053 200.75744129 102 182 C102.22703613 181.36416992 102.45407227 180.72833984 102.68798828 180.07324219 C110.15479029 158.87943906 109.74063121 132.49092053 102.4375 111.25 C102.0511438 110.12029785 102.0511438 110.12029785 101.65698242 108.96777344 C91.68407129 81.04245824 71.60967486 59.07138486 45.15625 45.82421875 C30.72198675 39.12919261 15.76716243 36.98544765 0 36 C0 24.12 0 12.24 0 0 Z " fill="#FDFDFE" transform="translate(200,54)"/>
</svg>
